HIERARCHY
ROOT Hips
{
  OFFSET -2.65975 101.343 4.61839
  CHANNELS 6 Xposition Yposition Zposition Zrotation Xrotation Yrotation
  JOINT Spine
  {
    OFFSET 0 10.1816 0.1315
    CHANNELS 6 Xposition Yposition Zposition Zrotation Xrotation Yrotation
    JOINT Spine1
    {
      OFFSET 0 10.0835 -1.0008
      CHANNELS 6 Xposition Yposition Zposition Zrotation Xrotation Yrotation
      JOINT Spine2
      {
        OFFSET 0 9.1 -1.3734
        CHANNELS 6 Xposition Yposition Zposition Zrotation Xrotation Yrotation
        JOINT Neck1
        {
          OFFSET 0 16.6717 -2.5162
          CHANNELS 6 Xposition Yposition Zposition Zrotation Xrotation Yrotation
          JOINT Neck2
          {
            OFFSET 0 9.6179 1.685
            CHANNELS 6 Xposition Yposition Zposition Zrotation Xrotation Yrotation
            JOINT Skull
            {
              OFFSET 0 7.59293 2.585
              CHANNELS 6 Xposition Yposition Zposition Zrotation Xrotation Yrotation
              End Site
              {
                OFFSET 0 0 0
              }
            }
          }
        }
        JOINT LeftShoulder
        {
          OFFSET 4.5704 10.946 -2.628
          CHANNELS 6 Xposition Yposition Zposition Zrotation Xrotation Yrotation
          JOINT LeftArm
          {
            OFFSET 10.5924 -0.5246 -2.2321
            CHANNELS 6 Xposition Yposition Zposition Zrotation Xrotation Yrotation
            JOINT LeftForeArm
            {
              OFFSET 27.8415 -0.0001 0
              CHANNELS 6 Xposition Yposition Zposition Zrotation Xrotation Yrotation
              JOINT LeftHand
              {
                OFFSET 28.3288 0 0
                CHANNELS 6 Xposition Yposition Zposition Zrotation Xrotation Yrotation
                JOINT LeftHandThumb1
                {
                  OFFSET 2.4661 -1.575 2.6824
                  CHANNELS 6 Xposition Yposition Zposition Zrotation Xrotation Yrotation
                  JOINT LeftHandThumb2
                  {
                    OFFSET 3.2298 -1.8647 1.8647
                    CHANNELS 6 Xposition Yposition Zposition Zrotation Xrotation Yrotation
                    End Site
                    {
                      OFFSET 2.6526 -1.5315 1.5315
                    }
                  }
                }
                JOINT LeftHandIndex1
                {
                  OFFSET 9.1093 -0.5171 2.2601
                  CHANNELS 6 Xposition Yposition Zposition Zrotation Xrotation Yrotation
                  JOINT LeftHandIndex2
                  {
                    OFFSET 3.6764 0 0
                    CHANNELS 6 Xposition Yposition Zposition Zrotation Xrotation Yrotation
                    End Site
                    {
                      OFFSET 2.8831 0 0
                    }
                  }
                }
                JOINT LeftHandMiddle1
                {
                  OFFSET 9.5334 0 0
                  CHANNELS 6 Xposition Yposition Zposition Zrotation Xrotation Yrotation
                  JOINT LeftHandMiddle2
                  {
                    OFFSET 3.6982 0 0
                    CHANNELS 6 Xposition Yposition Zposition Zrotation Xrotation Yrotation
                    End Site
                    {
                      OFFSET 2.9509 0 0
                    }
                  }
                }
                JOINT LeftHandRing1
                {
                  OFFSET 9.1045 -0.0439 -1.8651
                  CHANNELS 6 Xposition Yposition Zposition Zrotation Xrotation Yrotation
                  JOINT LeftHandRing2
                  {
                    OFFSET 3.154 0 0
                    CHANNELS 6 Xposition Yposition Zposition Zrotation Xrotation Yrotation
                    End Site
                    {
                      OFFSET 2.9377 0 0
                    }
                  }
                }
                JOINT LeftHandPinky1
                {
                  OFFSET 8.0778 -0.4887 -3.8061
                  CHANNELS 6 Xposition Yposition Zposition Zrotation Xrotation Yrotation
                  JOINT LeftHandPinky2
                  {
                    OFFSET 3.6 0 0
                    CHANNELS 6 Xposition Yposition Zposition Zrotation Xrotation Yrotation
                    End Site
                    {
                      OFFSET 2.1142 0 0
                    }
                  }
                }
              }
            }
          }
        }
        JOINT RightShoulder
        {
          OFFSET -4.57 10.9462 -2.628
          CHANNELS 6 Xposition Yposition Zposition Zrotation Xrotation Yrotation
          JOINT RightArm
          {
            OFFSET -10.5928 -0.5248 -2.2321
            CHANNELS 6 Xposition Yposition Zposition Zrotation Xrotation Yrotation
            JOINT RightForeArm
            {
              OFFSET -27.8415 0 0
              CHANNELS 6 Xposition Yposition Zposition Zrotation Xrotation Yrotation
              JOINT RightHand
              {
                OFFSET -28.3288 0 0.0001
                CHANNELS 6 Xposition Yposition Zposition Zrotation Xrotation Yrotation
                JOINT RightHandPinky1
                {
                  OFFSET -8.0767 -0.4885 -3.806
                  CHANNELS 6 Xposition Yposition Zposition Zrotation Xrotation Yrotation
                  JOINT RightHandPinky2
                  {
                    OFFSET -3.6 0 0.0001
                    CHANNELS 6 Xposition Yposition Zposition Zrotation Xrotation Yrotation
                    End Site
                    {
                      OFFSET -2.1142 0 0
                    }
                  }
                }
                JOINT RightHandRing1
                {
                  OFFSET -9.1036 -0.0439 -1.8651
                  CHANNELS 6 Xposition Yposition Zposition Zrotation Xrotation Yrotation
                  JOINT RightHandRing2
                  {
                    OFFSET -3.154 0 0
                    CHANNELS 6 Xposition Yposition Zposition Zrotation Xrotation Yrotation
                    End Site
                    {
                      OFFSET -2.9377 0 0
                    }
                  }
                }
                JOINT RightHandMiddle1
                {
                  OFFSET -9.5325 0 0
                  CHANNELS 6 Xposition Yposition Zposition Zrotation Xrotation Yrotation
                  JOINT RightHandMiddle2
                  {
                    OFFSET -3.6982 0 0
                    CHANNELS 6 Xposition Yposition Zposition Zrotation Xrotation Yrotation
                    End Site
                    {
                      OFFSET -2.9509 0 0
                    }
                  }
                }
                JOINT RightHandIndex1
                {
                  OFFSET -9.1083 -0.5168 2.2601
                  CHANNELS 6 Xposition Yposition Zposition Zrotation Xrotation Yrotation
                  JOINT RightHandIndex2
                  {
                    OFFSET -3.6764 0 0
                    CHANNELS 6 Xposition Yposition Zposition Zrotation Xrotation Yrotation
                    End Site
                    {
                      OFFSET -2.8831 0 0
                    }
                  }
                }
                JOINT RightHandThumb1
                {
                  OFFSET -2.4648 -1.5727 2.6826
                  CHANNELS 6 Xposition Yposition Zposition Zrotation Xrotation Yrotation
                  JOINT RightHandThumb2
                  {
                    OFFSET -3.2298 -1.8647 1.8647
                    CHANNELS 6 Xposition Yposition Zposition Zrotation Xrotation Yrotation
                    End Site
                    {
                      OFFSET -2.6526 -1.5314 1.5314
                    }
                  }
                }
              }
            }
          }
        }
      }
    }
  }
  JOINT LeftUpLeg
  {
    OFFSET 8.2078 -6.7517 -1.5996
    CHANNELS 6 Xposition Yposition Zposition Zrotation Xrotation Yrotation
    JOINT LeftLeg
    {
      OFFSET 0 -44.3705 0.2846
      CHANNELS 6 Xposition Yposition Zposition Zrotation Xrotation Yrotation
      JOINT LeftFoot
      {
        OFFSET 0 -44.4279 -2.9822
        CHANNELS 6 Xposition Yposition Zposition Zrotation Xrotation Yrotation
        End Site
        {
          OFFSET 0 -8.7287 10.7106
        }
      }
    }
  }
  JOINT RightUpLeg
  {
    OFFSET -8.2078 -6.7517 -1.5996
    CHANNELS 6 Xposition Yposition Zposition Zrotation Xrotation Yrotation
    JOINT RightLeg
    {
      OFFSET 0 -44.3705 0.2862
      CHANNELS 6 Xposition Yposition Zposition Zrotation Xrotation Yrotation
      JOINT RightFoot
      {
        OFFSET 0 -44.4277 -2.9838
        CHANNELS 6 Xposition Yposition Zposition Zrotation Xrotation Yrotation
        End Site
        {
          OFFSET 0 -8.7287 10.7106
        }
      }
    }
  }
}
MOTION
Frames:	4
Frame Time:	0.0333333
4.07702 98.5995 5.77931 -3.06995 8.09684 -7.29687 0 10.1816 0.1315 3.05272 9.31077 8.1005 8.88178e-016 10.0835 -1.0008 -2.28719 1.45575 1.21054 0 9.1 -1.3734 -2.28235 1.49468 1.17116 -1.11022e-015 16.6717 -2.5162 1.09496 -0.260975 -0.307795 -6.66134e-016 9.6179 1.685 1.09497 -0.26099 -0.307796 1.33227e-015 7.59293 2.585 1.09497 -0.260966 -0.307802 4.5704 10.946 -2.628 5.65047 -0.665384 8.33106 10.5924 -0.5246 -2.2321 -137.013 60.3677 66.1625 27.8415 -0.0001 0 -0.000200885 -6.44385e-006 -28.0228 28.3288 -1.42109e-014 7.10543e-015 -34.4519 26.3523 6.38403 2.4661 -1.575 2.6824 4.98587 -1.25354 2.72581 3.2298 -1.8647 1.8647 0.739164 4.04322 7.89737 9.1093 -0.5171 2.2601 -1.74379 0.0355213 -6.23081 3.6764 -1.42109e-014 0 -0.0300204 -7.27847e-006 0.00361371 9.5334 0 0 -1.11315 -0.0106925 -1.10813 3.6982 0 -3.55271e-015 -0.037744 -1.12943e-005 0.00453299 9.1045 -0.0439 -1.8651 -0.633887 0.00305771 3.01483 3.154 0 -1.77636e-015 -0.0299863 4.32602e-006 0.00360939 8.0778 -0.4887 -3.8061 0.229548 0.100717 10.0742 3.6 0 3.55271e-015 -0.527906 0.0193981 -4.05207 -4.57 10.9462 -2.628 -0.594825 5.03561 8.51174 -10.5928 -0.5248 -2.2321 31.2111 44.9249 50.9955 -27.8415 0 -3.55271e-015 -2.10263e-006 1.11317e-005 111.393 -28.3288 -7.10543e-015 0.0001 -1.12358 24.1518 -12.7056 -8.0767 -0.4885 -3.806 5.3261 1.68307 -6.88103 -3.6 0 0.0001 17.418 1.44232 -1.5679 -9.1036 -0.0439 -1.8651 5.78387 1.64819 -1.88659 -3.154 0 -1.42109e-014 17.4181 1.44204 -1.56935 -9.5325 0 0 5.8919 1.64576 -0.711783 -3.6982 0 0 17.4181 1.44203 -1.56935 -9.1083 -0.5168 2.2601 6.18898 1.65041 2.51894 -3.6764 0 1.42109e-014 17.4181 1.44204 -1.56935 -2.4648 -1.5727 2.6826 -6.58323 -1.43646 -3.76368 -3.2298 -1.8647 1.8647 -0.219587 4.67208 -8.61486 8.2078 -6.7517 -1.5996 5.29157 -53.6701 -1.35293 0 -44.3705 0.2846 179.232 70.6561 -169.596 0 -44.4279 -2.9822 -10.9162 9.40493 3.10083 -8.2078 -6.7517 -1.5996 4.15586 -30.2341 -10.0814 -4.44089e-016 -44.3705 0.2862 15.8929 47.7735 -6.90319 1.77636e-015 -44.4277 -2.9838 7.78785 1.55361 -0.925036 
1.36654 100.328 7.1426 -4.34257 5.98989 -6.29002 8.88178e-016 10.1816 0.1315 2.60359 10.5411 9.23821 0 10.0835 -1.0008 -1.88475 1.11257 1.35992 4.44089e-016 9.1 -1.3734 -1.88889 1.14987 1.32325 0 16.6717 -2.5162 0.79987 -0.353676 -0.403549 8.88178e-016 9.6179 1.685 0.79987 -0.35368 -0.40355 -4.44089e-016 7.59293 2.585 0.799873 -0.353662 -0.403567 4.5704 10.946 -2.628 6.37707 -0.576103 7.93678 10.5924 -0.5246 -2.2321 -127.164 59.0664 62.4878 27.8415 -0.0001 -1.42109e-014 -0.000214788 6.54944e-006 -28.972 28.3288 0 -7.10543e-015 -36.4025 23.5197 9.45598 2.4661 -1.575 2.6824 6.13846 -1.1463 3.82722 3.2298 -1.8647 1.8647 0.739164 4.04322 7.89737 9.1093 -0.5171 2.2601 -0.704703 0.0361475 -5.87181 3.6764 0 -1.77636e-015 -0.0991637 -1.60865e-005 0.0118984 9.5334 1.42109e-014 0 0.0159844 9.56062e-007 -0.0019139 3.6982 2.84217e-014 0 -0.115133 -1.15294e-005 0.0138283 9.1045 -0.0439 -1.8651 0.4233 0.0130262 3.52318 3.154 1.42109e-014 -3.55271e-015 -0.0991534 -1.6862e-005 0.0119001 8.0778 -0.4887 -3.8061 1.31228 0.125364 10.8064 3.6 1.42109e-014 0 -0.606861 0.0249829 -4.04252 -4.57 10.9462 -2.628 -2.09446 5.18511 10.0719 -10.5928 -0.5248 -2.2321 30.6742 39.5934 51.4254 -27.8415 0 3.55271e-015 1.36833e-005 6.75253e-006 116.266 -28.3288 -7.10543e-015 0.0001 -0.249803 23.0273 -11.5461 -8.0767 -0.4885 -3.806 5.3261 1.68307 -6.88103 -3.6 0 0.0001 17.418 1.4423 -1.5679 -9.1036 -0.0439 -1.8651 5.78387 1.64819 -1.88659 -3.154 -1.42109e-014 -2.84217e-014 17.4181 1.44203 -1.56935 -9.5325 0 0 5.8919 1.64576 -0.711783 -3.6982 0 -1.42109e-014 17.4181 1.44204 -1.56935 -9.1083 -0.5168 2.2601 6.18898 1.65041 2.51894 -3.6764 0 -1.42109e-014 17.4181 1.44204 -1.56935 -2.4648 -1.5727 2.6826 -6.58323 -1.43646 -3.76368 -3.2298 -1.8647 1.8647 -0.219587 4.67208 -8.61486 8.2078 -6.7517 -1.5996 9.95621 -47.5777 -2.16336 0 -44.3705 0.2846 178.743 76.2468 -168.758 -3.55271e-015 -44.4279 -2.9822 -7.90572 10.5825 3.02227 -8.2078 -6.7517 -1.5996 -0.629243 -28.6387 -12.1559 8.88178e-016 -44.3705 0.2862 15.5576 47.6117 -4.39027 -8.88178e-016 -44.4277 -2.9838 17.7452 6.85173 -0.757037 
-1.49363 101.388 8.49769 -4.70394 3.58695 -4.54729 0 10.1816 0.1315 1.47889 12.1143 10.3907 0 10.0835 -1.0008 -1.48848 0.111503 1.48297 0 9.1 -1.3734 -1.51736 0.143875 1.45111 0 16.6717 -2.5162 0.165481 0.381418 -0.480992 0 9.6179 1.685 0.165475 0.381405 -0.480991 0 7.59293 2.585 0.165486 0.38144 -0.481014 4.5704 10.946 -2.628 7.08011 -0.51412 7.56689 10.5924 -0.5246 -2.2321 -116.244 59.0858 59.1875 27.8415 -0.0001 -1.42109e-014 -0.000204612 -1.55999e-006 -27.3607 28.3288 0 1.42109e-014 -37.6309 21.6461 13.4865 2.4661 -1.575 2.6824 6.13846 -1.1463 3.8272 3.2298 -1.8647 1.8647 0.739164 4.04322 7.89737 9.1093 -0.5171 2.2601 -0.704705 0.0361452 -5.87182 3.6764 -1.42109e-014 0 -0.0248165 2.10026e-006 0.00297899 9.5334 -1.42109e-014 0 0.0159867 8.33391e-007 -0.00192432 3.6982 0 -7.10543e-015 -0.0407822 -2.05753e-006 0.00492561 9.1045 -0.0439 -1.8651 0.423309 0.0130207 3.52317 3.154 0 7.10543e-015 -0.0248005 -1.8824e-006 0.00298062 8.0778 -0.4887 -3.8061 1.31229 0.125362 10.8064 3.6 0 0 -0.532698 0.0197339 -4.0515 -4.57 10.9462 -2.628 -3.50904 5.26045 11.5385 -10.5928 -0.5248 -2.2321 32.4716 32.1774 48.6349 -27.8415 0 -3.55271e-015 -1.22052e-005 -1.3306e-005 115.85 -28.3288 0 0.0001 0.231426 19.5354 -9.28584 -8.0767 -0.4885 -3.806 5.3261 1.68307 -6.88103 -3.6 1.42109e-014 0.0001 17.418 1.4423 -1.56789 -9.1036 -0.0439 -1.8651 5.78387 1.64819 -1.88659 -3.154 -2.84217e-014 -1.42109e-014 17.4181 1.44203 -1.56935 -9.5325 -1.42109e-014 0 5.8919 1.64576 -0.711783 -3.6982 2.84217e-014 1.42109e-014 17.4181 1.44204 -1.56935 -9.1083 -0.5168 2.2601 6.18898 1.65041 2.51894 -3.6764 1.42109e-014 0 17.4181 1.44204 -1.56935 -2.4648 -1.5727 2.6826 -6.58323 -1.43646 -3.76368 -3.2298 -1.8647 1.8647 -0.219587 4.67208 -8.61486 8.2078 -6.7517 -1.5996 17.5889 -38.6698 -1.45815 0 -44.3705 0.2846 150.339 89.5313 -140.08 0 -44.4279 -2.9822 -1.13381 11.6421 0.00840233 -8.2078 -6.7517 -1.5996 -5.36211 -25.4565 -13.0138 0 -44.3705 0.2862 12.5587 43.3968 -5.10005 8.88178e-016 -44.4277 -2.9838 11.8894 4.45131 -1.37354 
-4.66513 102.09 10.0381 -5.92589 2.83204 -1.23519 1.77636e-015 10.1816 0.1315 2.44832 11.0793 10.3714 0 10.0835 -1.0008 -1.26362 -0.221652 1.471 0 9.1 -1.3734 -1.29592 -0.190221 1.44743 1.77636e-015 16.6717 -2.5162 -0.602573 0.997739 -0.512683 -3.55271e-015 9.6179 1.685 -0.602576 0.997796 -0.512683 0 7.59293 2.585 -0.602519 0.997856 -0.51268 4.5704 10.946 -2.628 7.86032 -0.422094 7.04071 10.5924 -0.5246 -2.2321 -100.985 58.1158 50.6205 27.8415 -0.0001 0 -0.000205974 -1.43894e-005 -21.2109 28.3288 3.55271e-015 0 -37.6563 21.0172 16.7107 2.4661 -1.575 2.6824 6.13847 -1.1463 3.82721 3.2298 -1.8647 1.8647 0.739164 4.04322 7.89737 9.1093 -0.5171 2.2601 -0.704696 0.0361358 -5.87184 3.6764 0 0 -4.34705e-005 5.02846e-006 -1.46542e-006 9.5334 0 -1.42109e-014 0.015981 -1.36354e-006 -0.0019196 3.6982 -1.42109e-014 0 -5.71996e-005 1.45432e-006 -6.30971e-005 9.1045 -0.0439 -1.8651 0.423309 0.0130105 3.52316 3.154 0 -1.42109e-014 7.42184e-005 -4.14351e-006 1.20351e-006 8.0778 -0.4887 -3.8061 1.31228 0.125364 10.8064 3.6 0 0 -0.487966 0.0165601 -4.05692 -4.57 10.9462 -2.628 -5.05371 5.06548 12.4983 -10.5928 -0.5248 -2.2321 32.3848 25.9448 46.8712 -27.8415 1.42109e-014 -7.10543e-015 -1.43593e-005 -5.1615e-006 109.771 -28.3288 0 0.0001 1.12136 15.6571 -5.67041 -8.0767 -0.4885 -3.806 5.3261 1.68307 -6.88103 -3.6 -1.42109e-014 0.0001 17.418 1.44229 -1.56789 -9.1036 -0.0439 -1.8651 5.78387 1.64819 -1.88659 -3.154 0 -2.13163e-014 17.4181 1.44204 -1.56935 -9.5325 0 -7.10543e-015 5.8919 1.64576 -0.711783 -3.6982 1.42109e-014 7.10543e-015 17.4181 1.44203 -1.56935 -9.1083 -0.5168 2.2601 6.18898 1.65041 2.51894 -3.6764 1.42109e-014 0 17.4181 1.44203 -1.56935 -2.4648 -1.5727 2.6826 -6.58323 -1.43646 -3.76368 -3.2298 -1.8647 1.8647 -0.219587 4.67208 -8.61486 8.2078 -6.7517 -1.5996 27.8771 -30.1871 2.26486 -7.10543e-015 -44.3705 0.2846 0.486067 70.3219 9.30503 0 -44.4279 -2.9822 0.306804 9.08444 -4.42449 -8.2078 -6.7517 -1.5996 -6.64229 -20.8847 -12.4876 -3.55271e-015 -44.3705 0.2862 7.25703 32.3195 -9.65125 -3.55271e-015 -44.4277 -2.9838 1.66404 4.64609 -0.474655 
